<svg width="46" height="20" viewBox="0 0 46 20" fill="none" xmlns="http://www.w3.org/2000/svg">
<path fill-rule="evenodd" clip-rule="evenodd" d="M27.3369 7.81103L27.4044 8.87365C27.4128 8.9327 27.4128 8.97485 27.4128 9.05918C27.4128 9.14352 27.4297 9.15193 27.4297 9.23627C27.4297 9.47241 27.4719 9.71696 27.4719 9.96151L27.4971 10.3073C27.514 10.4338 27.514 10.5519 27.514 10.6784C27.514 10.7796 27.5393 10.9229 27.5477 11.0241L27.573 11.547C27.573 11.6313 27.5899 11.6482 27.5899 11.7241L27.632 12.4493C27.632 12.5337 27.6489 12.5421 27.6489 12.6264C27.6489 12.8372 27.6742 12.9385 27.6742 13.1661L27.7079 13.5287L26.2068 13.5287L26.4851 12.0951C26.5273 11.8505 26.5864 11.6228 26.6285 11.3782C26.6453 11.2602 26.6707 11.1505 26.696 11.024C26.7213 10.8975 26.7465 10.7879 26.7634 10.6614L27.0417 9.22778C27.0923 8.99168 27.1261 8.74713 27.1851 8.51095L27.2863 7.97962C27.2947 7.94589 27.2947 7.93747 27.3031 7.88687L27.3284 7.79412L27.3369 7.81095L27.3369 7.81103ZM35.4665 10.3241H34.0076C33.9485 10.3241 33.9738 10.2735 33.9738 10.2061L34.1425 7.53274C34.1425 7.44841 34.1593 7.43999 34.1593 7.36407L34.2099 6.47016C34.2183 6.41111 34.2183 6.36054 34.2183 6.29304C34.2183 6.14127 34.2605 5.76175 34.2605 5.58466C34.2605 5.50036 34.2774 5.48346 34.2774 5.40758L34.2942 5.04496C34.3026 4.94375 34.3195 4.79195 34.3195 4.68233H35.8797C36.3098 4.68233 36.1833 5.00281 36.1833 5.34015L35.9893 8.35922C35.9893 8.42669 35.9977 8.48571 35.9893 8.55321C35.9471 8.9327 35.9471 9.42184 35.905 9.79288C35.8797 10.0206 35.9724 10.3158 35.4665 10.3158V10.3242L35.4665 10.3241ZM25.2623 18.1839C25.2961 18.0237 25.3298 17.8465 25.3635 17.6863C25.3973 17.5092 25.431 17.349 25.4648 17.1719C25.4985 17.0032 25.5322 16.8346 25.566 16.6575C25.5997 16.4888 25.6334 16.3117 25.6756 16.1515L27.9019 16.1515C27.9019 16.2948 27.9441 16.5225 27.9441 16.6659C27.9525 16.9189 27.9947 17.1803 28.0031 17.4333C28.0116 17.602 28.0453 17.7791 28.0453 17.9562C28.0453 18.0321 28.0369 18.1839 28.1043 18.1839H33.4257C33.4932 18.1839 33.4679 18.0658 33.4848 17.8971C33.5016 17.6863 33.5016 17.4586 33.5269 17.2478C33.5354 17.1972 33.5269 17.1382 33.5269 17.0876L33.586 16.2695C33.6028 16.1178 33.5944 15.9238 33.6197 15.772C33.645 15.6118 33.6365 15.4431 33.6534 15.2744C33.6619 15.2238 33.6534 15.1732 33.6619 15.1142L33.7462 13.807C33.7462 13.7395 33.7462 13.6974 33.7546 13.6299C33.78 13.4444 33.7968 13.1493 33.7968 12.9637H34.1847C34.2437 12.9637 34.2353 13.0396 34.2522 13.0902L34.6823 14.8949C34.7329 15.1057 34.7919 15.3503 34.8425 15.5611C35.0112 16.2189 35.1714 16.8683 35.3148 17.5345L35.4328 18.032C35.4497 18.0911 35.4413 18.1754 35.5003 18.1754H38.8483C38.8483 18.0995 38.7893 17.9308 38.764 17.8465L38.4182 16.5562C38.2833 16.0081 38.1146 15.4683 37.9797 14.9202C37.8448 14.3805 37.6761 13.8323 37.5496 13.2926C37.5243 13.183 37.4821 13.0733 37.4568 12.9637C37.8701 12.9637 38.1821 12.8541 38.4098 12.6686C38.7893 12.365 39.0254 11.9011 39.017 11.3867L39.2025 8.43511C39.2194 8.34236 39.2109 8.22429 39.2278 8.13995L39.2615 7.54116C39.2615 7.47369 39.27 7.45686 39.2784 7.40622C39.2868 7.3472 39.2784 7.30502 39.2868 7.246C39.3121 7.10265 39.3037 6.95085 39.3121 6.80746L39.3543 6.21715C39.3627 6.07377 39.3627 5.9051 39.3796 5.76175L39.4302 4.86783H40.4337C40.4337 5.14612 40.3915 5.41599 40.3915 5.69428L40.3325 6.52072C40.3156 6.66407 40.324 6.79901 40.3156 6.94236L40.2566 7.7688C40.2566 7.92061 40.2482 8.06396 40.2313 8.19044L40.0289 11.5131C40.0121 11.6312 40.0121 11.8083 40.0036 11.9264C40.0036 12.0023 39.9868 12.0276 39.9868 12.1204L39.7169 16.5056C39.7085 16.6322 39.6832 16.7839 39.6832 16.9104L39.6326 17.7453C39.6157 17.8718 39.6073 18.0236 39.6073 18.167H42.9131C42.9806 18.167 42.9553 18.0742 42.9553 17.9983C42.9553 17.8634 42.9891 17.7285 42.9891 17.5767L43.0565 16.531C43.0734 16.4213 43.0819 16.2442 43.0819 16.1177C43.0819 16.0418 43.0987 16.0081 43.0987 15.9069C43.0987 15.8057 43.1156 15.7804 43.1156 15.6961C43.1156 15.5864 43.124 15.3925 43.1408 15.2828C43.1661 15.1395 43.1493 14.9961 43.1661 14.8527C43.1746 14.7262 43.1914 14.5829 43.1914 14.4479L43.2252 14.0263C43.2252 13.9335 43.2336 13.8998 43.242 13.8323L43.2757 13.183C43.2926 12.9384 43.3263 12.6011 43.3348 12.3565L43.377 11.5132C43.3854 11.3867 43.4107 11.2433 43.4107 11.1084C43.4107 10.965 43.436 10.8217 43.4444 10.6867C43.4529 10.3916 43.4782 10.1386 43.4866 9.8434L43.7818 5.26415C43.7902 5.18823 43.7902 5.12922 43.7902 5.04488C43.7902 4.96896 43.8071 4.93526 43.8071 4.83406H45.9997C45.9406 4.58951 45.8985 4.3365 45.8394 4.07508L45.6118 2.93658C45.5864 2.80165 45.5612 2.68358 45.5358 2.54868C45.5105 2.43061 45.4852 2.29567 45.4599 2.17761C45.4346 2.04267 45.3924 1.91615 45.3924 1.78125H39.3205C39.3121 1.8403 39.2952 1.88249 39.2783 1.93305C39.2277 2.0764 39.1603 2.23666 39.1265 2.38001H39.0928C39.076 2.32096 39.0169 2.27877 38.9747 2.23662C38.882 2.14387 38.7724 2.08486 38.6627 2.0258C38.3844 1.85713 37.9459 1.78125 37.5748 1.78125H31.2161C31.2161 2.00897 31.1824 2.18606 31.1824 2.39688C31.1824 2.46438 31.174 2.48966 31.174 2.53181C31.1655 2.59087 31.174 2.64143 31.1655 2.69207C31.1571 2.77636 31.1487 2.91134 31.1402 2.99567C31.1318 3.04624 31.1402 3.09687 31.1402 3.14744L31.0896 3.92332C31.0643 4.10886 31.0559 4.61487 31.0391 4.85097L31.0138 5.30637C31.0138 5.46659 30.98 5.60153 30.98 5.75329L30.8873 7.13635C30.8788 7.38935 30.8367 7.65077 30.8451 7.90378C30.8451 8.15678 30.8113 8.4182 30.8029 8.67121L30.6848 10.4928C30.6848 10.8554 30.6258 11.2265 30.6258 11.5891H30.609C30.609 11.2855 30.4993 10.712 30.474 10.3747L30.4487 10.1723C30.4403 10.088 30.4403 10.0458 30.4319 9.96993L30.1451 7.54961C30.0692 7.01828 30.0355 6.46171 29.9512 5.93883L29.9006 5.53406L29.4705 1.8909C29.4537 1.7391 29.4368 1.7897 29.1163 1.7897L25.9454 1.78966L25.3719 4.15938C24.925 5.93879 24.5118 7.72662 24.0648 9.51448C24.0142 9.70847 23.9636 9.91084 23.9214 10.1048L22.9853 13.9588L22.9094 14.2624L22.0408 17.8296C22.0323 17.8549 21.9648 18.1248 21.9648 18.1248C21.9733 18.1669 21.9648 18.1501 22.0154 18.1501H25.2622V18.1838L25.2623 18.1839Z" fill="black"/>
<path fill-rule="evenodd" clip-rule="evenodd" d="M0.679354 16.4388C0.687807 16.3629 0.704636 16.287 0.721541 16.2195L0.772104 15.9413C0.780556 15.8991 0.780556 15.8485 0.797423 15.7979C0.805838 15.7557 0.814253 15.722 0.822705 15.6883C0.831157 15.6124 0.847987 15.5365 0.856439 15.4522C0.864891 15.3763 0.890173 15.3004 0.898625 15.2414C0.898625 15.1908 0.974545 14.7607 0.991375 14.7269C0.991375 14.6595 1.09261 14.027 1.10944 13.9932C1.1179 13.8752 1.16001 13.7402 1.16846 13.6222C1.17691 13.4872 1.22751 13.3102 1.24438 13.1753C1.25283 13.0572 1.28657 12.9054 1.30343 12.7873C1.31189 12.7198 1.32026 12.6693 1.33717 12.5934C1.34562 12.5428 1.36249 12.4921 1.36249 12.4247C1.38777 12.3404 1.39622 12.1801 1.4215 12.1126C1.42995 11.9862 1.46369 11.8596 1.48055 11.7331C1.48897 11.6825 1.49738 11.6488 1.50584 11.5898C1.51429 11.5476 1.50584 11.5139 1.53116 11.497C1.53116 11.3874 1.5733 11.2777 1.5733 11.185C1.59862 11.0416 1.63236 10.8898 1.64922 10.7464C1.66609 10.6452 1.68296 10.5525 1.69983 10.4513C1.70824 10.4176 1.71666 10.3417 1.72511 10.3079C1.73356 10.2574 1.74197 10.2405 1.74197 10.1899C1.75039 10.114 1.76726 10.0381 1.78412 9.96219C1.79258 9.90314 1.81786 9.81039 1.81786 9.75982C1.83472 9.67549 1.85163 9.5827 1.86004 9.50678C1.8685 9.33811 1.93596 9.16948 1.93596 8.99239C1.95279 8.95021 1.97815 8.80686 1.97815 8.76467C1.99498 8.68034 2.01188 8.58759 2.02034 8.51167L2.09626 8.04784C2.10467 8.01411 2.10467 8.00566 2.10467 7.97192C2.10467 7.95506 2.10467 7.95506 2.11312 7.93819L2.12158 7.92132C2.12158 7.79484 2.16372 7.64304 2.18059 7.52497C2.18059 7.4744 2.22278 7.22981 2.23964 7.20449C2.23964 7.09488 2.27338 7.05273 2.27338 6.95149C2.28183 6.9093 2.31556 6.75754 2.31556 6.70694C2.31556 6.64792 2.33239 6.62264 2.34085 6.56359L2.40831 6.20938C2.40831 6.09976 2.42518 6.04912 2.44209 5.94792C2.4505 5.91419 2.47582 5.75393 2.48423 5.71182C2.49269 5.6359 2.50955 5.5853 2.51797 5.501C2.52642 5.44195 2.59389 4.96968 2.61921 4.94439C2.61921 4.86847 2.62762 4.85164 2.64449 4.78418C2.65294 4.72512 2.68668 4.42997 2.71199 4.40465C2.71199 4.3119 2.72882 4.24443 2.74573 4.15165C2.76256 4.06731 2.76256 4.00829 2.78788 3.94083L2.88066 3.40954C2.88066 3.34203 2.95658 2.88666 2.97341 2.86138C2.97341 2.78546 3.04088 2.38069 3.06616 2.33009C3.06616 2.27103 3.10835 2.00961 3.12522 1.97584C3.12522 1.89996 3.1505 1.76506 3.1674 1.68914C3.1674 1.63854 3.27702 1.0145 3.28543 0.980728C3.28543 0.862696 3.32762 0.719308 3.34449 0.601239C3.34449 0.533771 3.3529 0.550638 3.36132 0.5H21.7035L21.6192 1.05657C21.6024 1.14091 21.6277 1.09031 21.5855 1.12404L21.5939 1.16623C21.5686 1.29271 21.5011 1.84932 21.459 1.90834C21.4674 1.98426 21.3915 2.49023 21.3578 2.54083C21.3662 2.62513 21.2903 3.04684 21.265 3.148L21.2144 3.43474L21.0542 4.31183C21.0626 4.37084 20.9867 4.83466 20.9614 4.87685C20.9698 5.00333 20.9192 5.19732 20.8939 5.33226L20.818 5.77918C20.8096 5.79604 20.8096 5.79605 20.8096 5.81295L20.8011 5.83823C20.8096 5.9057 20.7927 6.06595 20.7506 6.11652C20.759 6.20927 20.7168 6.38639 20.7 6.47914C20.6831 6.58034 20.6157 7.06945 20.5819 7.11159C20.5904 7.18751 20.5313 7.59229 20.4892 7.64292C20.4976 7.68507 20.4554 8.03083 20.4132 8.08143C20.4301 8.19104 20.3289 8.6043 20.312 8.75607C20.2868 8.84886 20.2783 8.95006 20.2615 9.04281L20.2024 9.33796C20.2109 9.38015 20.1602 9.81024 20.1097 9.87767C20.1265 9.94517 20.1012 10.1054 20.0591 10.156C20.0675 10.2319 20.0422 10.3162 20.0338 10.4005L19.941 10.8644C19.9495 10.9234 19.9242 11.1174 19.8904 11.1595C19.8989 11.2438 19.8567 11.539 19.8145 11.598C19.823 11.6824 19.7977 11.7751 19.7808 11.8595C19.7723 11.9185 19.7555 12.0703 19.7218 12.1125C19.7302 12.1631 19.7218 12.2053 19.7133 12.2559C19.7133 12.2812 19.7049 12.3064 19.6965 12.3318C19.688 12.3824 19.6965 12.3571 19.6712 12.3908C19.6796 12.4499 19.6712 12.4836 19.6627 12.5342C19.6627 12.551 19.6543 12.5848 19.6543 12.6017C19.6458 12.6522 19.6543 12.6269 19.629 12.6607L19.5784 13.057C19.5447 13.1582 19.6122 12.9727 19.57 13.0823C19.57 13.0823 19.5615 13.0992 19.5615 13.0908C19.5615 13.0908 19.5615 13.0992 19.5531 13.0992C19.5615 13.1498 19.5531 13.192 19.5446 13.2426L19.5109 13.3691C19.5277 13.4366 19.4687 13.7907 19.435 13.8413C19.4434 13.9257 19.3844 14.322 19.3422 14.3727C19.3507 14.457 19.3085 14.769 19.2663 14.8196C19.2748 14.8871 19.2579 15.0389 19.2241 15.0895C19.2326 15.1654 19.2073 15.2581 19.1904 15.3425L19.1313 15.7135C19.1229 15.7726 19.0892 16.0087 19.0639 16.0593C19.0807 16.1436 19.0471 16.2533 19.0301 16.346C19.0133 16.4304 19.0133 16.5484 18.9711 16.6075C18.9795 16.6834 18.9543 16.7677 18.9458 16.8436C18.9374 16.9111 18.929 17.0123 18.8952 17.0544C18.9121 17.1556 18.8531 17.3665 18.8362 17.4761C18.8193 17.5857 18.8194 17.7881 18.7603 17.864C18.7687 17.9483 18.7265 18.2603 18.6844 18.3109C18.6928 18.3869 18.6253 18.8085 18.5916 18.8506C18.6001 18.9518 18.541 19.2301 18.5241 19.3482C18.5073 19.4747 18.5326 19.4915 18.4061 19.5H2.55155V19.4915C2.04554 19.4915 1.53957 19.4915 1.04201 19.5H0.139648C0.148063 19.4325 0.16493 19.3566 0.181835 19.2807L0.249303 18.8422C0.257717 18.8085 0.274584 18.6567 0.291489 18.6398C0.291489 18.5892 0.350504 18.2013 0.367409 18.176C0.367409 18.1169 0.384238 18.0326 0.392691 17.982C0.578227 16.9026 0.434877 17.8387 0.654148 16.4134L0.679429 16.4387L0.679354 16.4388ZM4.52488 17.9062H7.37532C8.26082 13.5462 9.44147 6.59725 10.2258 2.0349L7.40068 2.03486C7.43441 3.03839 4.65989 17.1556 4.53337 17.9147L4.52491 17.9062H4.52488ZM11.6593 13.2932C11.6341 13.3523 11.6256 13.4619 11.6172 13.5378C11.6087 13.6137 11.575 13.7065 11.575 13.7908C11.575 13.8414 11.5497 13.9088 11.5413 13.9595C11.5328 14.0185 11.516 14.0944 11.5075 14.1618C11.4907 14.1872 11.4485 14.4486 11.4485 14.5076C11.4232 14.5414 11.3557 14.9715 11.3557 15.0473L11.263 15.5196C11.2461 15.6461 11.2039 15.7473 11.2208 15.9075C11.2461 16.1605 11.4654 16.3207 11.7352 16.2786C11.9376 16.2448 11.9207 16.228 12.0557 16.1521C12.1063 16.0678 12.3087 15.8991 12.2918 15.7642C12.3255 15.7136 12.3846 15.3256 12.393 15.2666C12.4183 15.157 12.4858 14.8197 12.4773 14.7353L12.4858 14.71C12.4858 14.7015 12.5533 14.5076 12.5364 14.3895L12.5616 14.3052C12.5701 14.2799 12.5701 14.2462 12.5785 14.2124C12.5869 14.1534 12.6122 14.086 12.5953 14.0269C12.6038 14.0101 12.6038 14.0269 12.6122 13.9932L12.629 13.9173C12.6374 13.8582 12.6374 13.8582 12.6374 13.8076C12.6796 13.7571 12.6965 13.5294 12.7134 13.445C12.7302 13.3354 12.7893 13.0993 12.7808 13.0065L12.8399 12.7535C12.8567 12.6607 12.8821 12.5679 12.8736 12.4836C12.8989 12.4499 12.8989 12.3993 12.8905 12.3487C12.9664 12.2306 12.8483 11.7753 12.8062 11.6487C12.764 11.5307 12.5447 11.1765 12.4773 11.1427C12.4604 11.1006 12.2749 10.8476 12.2327 10.8223C12.2158 10.7717 12.2327 10.8138 12.199 10.7717L11.9628 10.4765L11.9038 10.3838C11.8279 10.291 11.4737 9.82718 11.44 9.81873C11.4231 9.75971 11.2797 9.591 11.2292 9.53199C11.187 9.48142 11.0436 9.27898 11.0099 9.26215C10.993 9.22842 10.7906 8.94168 10.7569 8.92481C10.7147 8.82361 10.6388 8.73083 10.5798 8.62966C10.5545 8.58747 10.5207 8.52846 10.4955 8.46941C10.4786 8.42726 10.4533 8.34292 10.428 8.30919C10.3943 8.1152 10.3774 8.02245 10.3858 7.81163L10.4617 7.27192L10.5882 6.56351C10.6135 6.44548 10.681 6.14187 10.6642 6.04067C10.7063 5.98162 10.74 5.71178 10.74 5.62741C10.7738 5.58523 10.8413 5.15514 10.8328 5.09612C10.8918 5.00333 10.9171 4.60698 10.9593 4.46363C10.9761 4.3456 11.0436 4.08414 11.0352 3.98298C11.0521 3.96615 11.0437 3.98298 11.0521 3.94924L11.0858 3.80589C11.1027 3.74684 11.128 3.67937 11.1196 3.62035C11.1448 3.58662 11.1364 3.60349 11.1533 3.55285C11.1617 3.52757 11.1701 3.5107 11.1786 3.48538C11.1954 3.43482 11.2123 3.40108 11.2123 3.34203C11.2545 3.29984 11.3051 3.15649 11.3304 3.08903L11.4653 2.83602C11.5075 2.8107 11.5497 2.74323 11.5834 2.70109C11.6256 2.64203 11.6593 2.61675 11.7099 2.57456C11.7521 2.54083 11.9882 2.38061 11.9966 2.36375C12.0725 2.33846 12.1568 2.27945 12.2412 2.24571C12.3255 2.21194 12.4014 2.17821 12.4942 2.15293C12.6882 2.09391 12.8568 2.06863 13.0676 2.05172C13.6664 2.0349 14.282 2.05172 14.8892 2.05172C15.4711 2.05172 16.0192 2.10229 16.3313 2.43963C16.3987 2.5071 16.5421 2.70108 16.5843 2.81915C16.618 2.92036 16.6602 2.99624 16.6855 3.10589C16.7108 3.22392 16.7192 3.33358 16.7192 3.47693C16.7192 3.52753 16.7108 3.62032 16.7024 3.68775C16.6939 3.75522 16.6771 3.83955 16.6771 3.91547C16.6687 3.99139 16.6434 4.08414 16.6349 4.16002C16.6265 4.24436 16.6096 4.36243 16.5843 4.42989C16.5843 4.48891 16.559 4.5817 16.5506 4.64917C16.5338 4.73346 16.5169 4.81784 16.5084 4.89372C16.5 4.919 16.4663 5.11299 16.4663 5.14672C16.4578 5.20578 16.4409 5.27321 16.4241 5.34909C16.4072 5.43342 16.3903 5.50934 16.3903 5.59364C16.365 5.66956 16.3566 5.77076 16.3397 5.86351C16.3229 5.97313 16.306 6.0575 16.2892 6.15867C16.2892 6.21772 16.2554 6.36103 16.247 6.41167C16.2385 6.46227 16.2385 6.47914 16.2302 6.53819C16.2217 6.58034 16.2048 6.63094 16.2048 6.68996C16.1964 6.74901 16.1796 6.82489 16.1626 6.89236C16.1458 6.96828 16.1289 7.05258 16.1289 7.12005C16.1205 7.17065 16.1036 7.23812 16.0868 7.30558L13.8351 7.31404C13.8351 7.15382 13.9363 6.86708 13.9278 6.71524C13.97 6.66468 14.0122 6.34417 14.0037 6.26832C14.0206 6.243 14.0122 6.26832 14.0206 6.22613L14.0881 5.77918C14.1386 5.72012 14.1808 5.23947 14.2146 5.12982C14.2314 5.01175 14.282 4.83466 14.2736 4.72501C14.3074 4.67445 14.3074 4.54793 14.3326 4.48891L14.3411 4.40458L14.3664 4.29496C14.4339 3.96607 14.3074 3.67933 13.9616 3.67933C13.6833 3.67933 13.3965 3.848 13.3122 4.08414C13.2954 4.12633 13.2954 4.15161 13.2785 4.18534C13.2616 4.26968 13.2363 4.38775 13.2363 4.47208C13.2195 4.548 13.211 4.59856 13.1941 4.6829C13.1773 4.76723 13.1604 4.8347 13.1604 4.92745L13.1267 5.05394L13.1013 5.20574C13.0845 5.31535 13.0592 5.41656 13.0508 5.5178C13.0255 5.53463 13.034 5.58526 13.0255 5.62741C13.017 5.68643 13.0086 5.70333 13.0002 5.7539C12.9917 5.82982 12.958 5.93943 12.958 6.01535C12.9412 6.08282 12.9327 6.14184 12.9158 6.22617C12.899 6.31047 12.8821 6.37797 12.8821 6.47072C12.8568 6.50446 12.8231 6.74901 12.8146 6.83335C12.8062 6.89236 12.7893 7.1285 12.8062 7.18755C12.823 7.23812 12.7893 7.20438 12.8315 7.22974C12.7893 7.34777 12.9411 7.64296 13.0086 7.76103C13.0507 7.8285 13.0001 7.78631 13.0676 7.82008C13.0592 7.86223 13.0592 7.8285 13.0676 7.86223C13.0676 7.8791 13.0844 7.89597 13.0929 7.91283L13.4977 8.46099C13.5314 8.48627 13.4724 8.46099 13.5314 8.48627C13.5314 8.53684 13.7338 8.77301 13.776 8.80675L14.0796 9.16095C14.0796 9.1694 14.0627 9.1694 14.1049 9.22842L14.4844 9.7007L14.6952 9.96215C14.7542 10.0381 14.729 10.0212 14.7795 10.0465C14.788 10.0971 14.906 10.2404 14.9398 10.2995C15.0072 10.4007 15.0663 10.544 15.1169 10.5693C15.1 10.6199 15.1084 10.5862 15.1337 10.6452C15.1506 10.6706 15.1506 10.679 15.1674 10.7212L15.277 11.0332C15.3108 11.1597 15.2855 11.1681 15.3276 11.2019C15.2855 11.3031 15.3108 11.4549 15.3108 11.5645C15.3024 11.632 15.2939 11.6488 15.2939 11.7332C15.2771 11.7585 15.218 12.1717 15.218 12.2392C15.1927 12.2645 15.218 12.2307 15.2012 12.2729C15.2012 12.2813 15.1927 12.3319 15.1927 12.3319C15.1843 12.391 15.1759 12.4247 15.1759 12.4753C15.1591 12.509 15.1 12.8548 15.1 12.9054C15.0832 12.9729 15.0663 13.0741 15.0578 13.1584C15.0494 13.2512 15.0156 13.3355 15.0156 13.4451C14.9988 13.462 14.9988 13.5042 14.9903 13.5379C14.9819 13.5885 14.9819 13.6138 14.9735 13.6559C14.9566 13.7403 14.9482 13.8331 14.9313 13.909C14.9313 13.9933 14.8891 14.1114 14.8891 14.2126C14.8723 14.2379 14.8469 14.4065 14.8469 14.4571C14.8301 14.5752 14.7964 14.6932 14.7879 14.8197C14.7711 14.8619 14.7289 15.1149 14.7289 15.1824C14.7036 15.1992 14.7036 15.2666 14.7036 15.3004C14.6951 15.3594 14.6867 15.3847 14.6783 15.4438C14.6614 15.545 14.6361 15.6546 14.6277 15.7558C14.6108 15.798 14.594 15.8907 14.5855 15.9413C14.5687 16.0004 14.5433 16.0931 14.535 16.1606L14.3916 16.5654C14.3157 16.7509 14.2229 16.8606 14.1892 16.9449C14.1724 16.9533 14.0711 17.0967 14.0459 17.1304C14.0121 17.1726 14.0037 17.181 13.9699 17.2232L13.8772 17.3244C13.8097 17.4172 13.5398 17.6112 13.4134 17.6617C13.3459 17.687 13.2868 17.7039 13.2194 17.7461C13.1435 17.7545 12.8483 17.8557 12.5785 17.8641L11.8279 17.881C11.6845 17.881 11.5918 17.8978 11.4653 17.8978L10.487 17.8979C10.3943 17.8979 10.3774 17.881 10.293 17.881C10.2509 17.881 10.1328 17.8557 10.0823 17.8473C10.0485 17.8389 10.0232 17.8389 9.98103 17.8305C9.93884 17.822 9.92201 17.8051 9.87141 17.8051C9.57626 17.7377 9.49192 17.6365 9.34012 17.5269C9.3148 17.51 9.33167 17.5184 9.3148 17.51C9.28952 17.4678 9.3148 17.5016 9.28107 17.4594C9.27262 17.4426 9.26424 17.4426 9.25579 17.4257L8.96905 16.886C8.9606 16.8101 8.93531 16.7426 8.92686 16.6667C8.91841 16.5824 8.93531 16.5065 8.91841 16.4306C8.94373 16.38 8.97746 15.9921 8.98591 15.8993C9.00274 15.7644 9.07021 15.4861 9.06183 15.3765C9.09557 15.3259 9.12085 15.1487 9.1124 15.0897L9.12085 15.0644C9.12085 15.0644 9.19677 14.7861 9.17986 14.6765C9.2136 14.6343 9.29793 14.1368 9.28948 14.0609L9.32322 13.9344C9.33167 13.8753 9.34854 13.8416 9.33167 13.791L9.3485 13.7404C9.3485 13.732 9.35695 13.6982 9.35695 13.6899C9.3654 13.6561 9.3654 13.6224 9.37378 13.5886C9.38223 13.5212 9.40755 13.4453 9.3991 13.3778C9.44129 13.3188 9.4834 13.0405 9.47502 12.9562C9.50875 12.9056 9.57622 12.4333 9.59305 12.3321C9.64365 12.2899 10.6557 12.3153 10.7147 12.3153H11.8616L11.7773 12.8128L11.7436 13.0068C11.7267 13.0996 11.693 13.1923 11.693 13.2935H11.6592L11.6593 13.2932Z" fill="black"/>
</svg>
