<svg width="130" height="84" viewBox="0 0 130 84" fill="none" xmlns="http://www.w3.org/2000/svg">
<path d="M124.99 61.2625C122.757 70.1983 118.435 83.2625 116.49 83.2625C114.935 83.2625 111.993 75.3056 106.99 74.2625C100.935 73 96.0196 74.2278 88.9902 74.2625C63.4045 74.3888 31.4902 78.2627 23.4902 75.7625C14.5813 72.9783 7.0545 70.2372 4.49023 61.2625C2.49023 54.2627 -1.00977 19.7627 2.49023 10.2625C4.06609 5.98513 6.26548 3.47448 10.4902 1.76252C14.2906 0.222538 16.9026 1.43761 20.9902 1.76252C26.3351 2.18736 29.1902 3.45127 34.4902 4.26252C48.8058 6.45376 57.0508 5.64892 71.4902 6.76252C80.8675 7.4857 86.1561 7.60996 95.4902 8.76252C101.958 9.56118 105.877 9.00439 111.99 11.2625C116.829 13.05 120.127 13.8506 123.49 17.7625C125.654 20.2796 126.35 22.1449 127.49 25.2625C130.306 32.9649 128.275 38.0991 127.49 46.2625C126.922 52.1739 126.43 55.501 124.99 61.2625Z" stroke="#0047A3"/>
</svg>
