<svg width="130" height="84" viewBox="0 0 130 84" fill="none" xmlns="http://www.w3.org/2000/svg">
<path d="M4.94483 61.2625C7.17772 70.1983 11.5 83.2625 13.4448 83.2625C15 83.2625 17.9419 75.3056 22.9448 74.2625C29 73 33.9155 74.2278 40.9448 74.2625C66.5306 74.3888 98.4448 78.2627 106.445 75.7625C115.354 72.9783 122.881 70.2372 125.445 61.2625C127.445 54.2627 130.945 19.7627 127.445 10.2625C125.869 5.98513 123.67 3.47448 119.445 1.76252C115.644 0.222538 113.032 1.43761 108.945 1.76252C103.6 2.18736 100.745 3.45127 95.4448 4.26252C81.1292 6.45376 72.8843 5.64892 58.4448 6.76252C49.0676 7.4857 43.779 7.60996 34.4448 8.76252C27.9768 9.56118 24.0583 9.00439 17.9448 11.2625C13.1056 13.05 9.80788 13.8506 6.44483 17.7625C4.28084 20.2796 3.58467 22.1449 2.44483 25.2625C-0.371267 32.9649 1.66024 38.0991 2.44483 46.2625C3.01297 52.1739 3.50512 55.501 4.94483 61.2625Z" stroke="#0047A3"/>
</svg>
