<svg width="1322" height="470" viewBox="0 0 1322 470" fill="none" xmlns="http://www.w3.org/2000/svg">
<path d="M351 0C372.539 5.02523e-06 390 17.4609 390 39V37C390 16.5655 406.565 0 427 0H1266C1310.18 0 1346 35.8172 1346 80V169.034C1316.17 181.852 1295.11 213.023 1295.11 249.441C1295.11 285.86 1316.17 317.029 1346 329.847V390C1346 434.183 1310.18 470 1266 470H86C38.5035 470 0 431.496 0 384V330.282C35.8376 318.387 61.5145 286.293 61.5146 248.566C61.5146 210.839 35.8379 178.744 0 166.849V86C6.57231e-06 38.5035 38.5035 3.70453e-07 86 0H351Z" fill="#F7F3EA"/>
</svg>
